<svg width="32" height="32" viewBox="0 0 32 32" fill="none" xmlns="http://www.w3.org/2000/svg">
<path d="M17.3334 9.33334C17.3334 8.59696 16.7364 8.00001 16 8.00001C15.2636 8.00001 14.6667 8.59696 14.6667 9.33334V16C14.6667 16.7364 15.2636 17.3333 16 17.3333H21.3334C22.0697 17.3333 22.6667 16.7364 22.6667 16C22.6667 15.2636 22.0697 14.6667 21.3334 14.6667H17.3334V9.33334Z" fill="black"/>
<path fill-rule="evenodd" clip-rule="evenodd" d="M29.3334 16C29.3334 23.3638 23.3638 29.3333 16 29.3333C8.63622 29.3333 2.66669 23.3638 2.66669 16C2.66669 8.63621 8.63622 2.66667 16 2.66667C23.3638 2.66667 29.3334 8.63621 29.3334 16ZM26.6667 16C26.6667 21.891 21.8911 26.6667 16 26.6667C10.109 26.6667 5.33335 21.891 5.33335 16C5.33335 10.109 10.109 5.33334 16 5.33334C21.8911 5.33334 26.6667 10.109 26.6667 16Z" fill="black"/>
</svg>
