<svg width="40" height="40" viewBox="0 0 40 40" fill="none" xmlns="http://www.w3.org/2000/svg">
<path d="M15 35H25" stroke="black" stroke-width="3" stroke-linecap="round"/>
<path d="M20 35V26.6667" stroke="black" stroke-width="3" stroke-linecap="round"/>
<mask id="path-3-inside-1_29_514" fill="white">
<path d="M8.33331 15.3333C8.33331 14.3905 8.33331 13.9191 8.62621 13.6262C8.9191 13.3333 9.3905 13.3333 10.3333 13.3333H29.6666C30.6095 13.3333 31.0809 13.3333 31.3738 13.6262C31.6666 13.9191 31.6666 14.3905 31.6666 15.3333V16.6667C31.6666 22 31.6666 24.6666 30.0903 26.3869C29.9724 26.5156 29.8489 26.6391 29.7202 26.757C27.9999 28.3333 25.3333 28.3333 20 28.3333C14.6667 28.3333 12 28.3333 10.2798 26.757C10.1511 26.6391 10.0276 26.5156 9.90965 26.3869C8.33331 24.6666 8.33331 22 8.33331 16.6667V15.3333Z"/>
</mask>
<path d="M8.33331 15.3333C8.33331 14.3905 8.33331 13.9191 8.62621 13.6262C8.9191 13.3333 9.3905 13.3333 10.3333 13.3333H29.6666C30.6095 13.3333 31.0809 13.3333 31.3738 13.6262C31.6666 13.9191 31.6666 14.3905 31.6666 15.3333V16.6667C31.6666 22 31.6666 24.6666 30.0903 26.3869C29.9724 26.5156 29.8489 26.6391 29.7202 26.757C27.9999 28.3333 25.3333 28.3333 20 28.3333C14.6667 28.3333 12 28.3333 10.2798 26.757C10.1511 26.6391 10.0276 26.5156 9.90965 26.3869C8.33331 24.6666 8.33331 22 8.33331 16.6667V15.3333Z" stroke="black" stroke-width="6" stroke-linecap="round" mask="url(#path-3-inside-1_29_514)"/>
<path d="M18.5577 19.5879C18.3301 20.3845 18.7914 21.2147 19.5879 21.4423C20.3845 21.6699 21.2147 21.2086 21.4423 20.4121L18.5577 19.5879ZM23.0638 9.27653L21.6216 8.86445L23.0638 9.27653ZM24.2441 7.96902L24.8012 9.36174L24.2441 7.96902ZM23.4178 8.40959L22.3044 7.40449L22.3044 7.40449L23.4178 8.40959ZM21.4423 20.4121L24.5061 9.68861L21.6216 8.86445L18.5577 19.5879L21.4423 20.4121ZM24.8012 9.36174L32.2238 6.39271L31.1096 3.60729L23.687 6.57631L24.8012 9.36174ZM24.5061 9.68861C24.5402 9.56929 24.5654 9.48133 24.5882 9.40654C24.6108 9.33208 24.6248 9.29176 24.6332 9.2698C24.641 9.24931 24.6375 9.26218 24.6205 9.29222C24.6013 9.32604 24.5718 9.36978 24.5313 9.41469L22.3044 7.40449C21.8609 7.89571 21.7134 8.54303 21.6216 8.86445L24.5061 9.68861ZM23.687 6.57631C23.3767 6.70045 22.7478 6.91327 22.3044 7.40449L24.5313 9.41469C24.4907 9.45959 24.4502 9.49342 24.4185 9.51594C24.3904 9.53594 24.378 9.54074 24.3975 9.53085C24.4185 9.52025 24.4572 9.50225 24.529 9.47212C24.601 9.44185 24.686 9.40782 24.8012 9.36174L23.687 6.57631Z" fill="black"/>
</svg>
